# Blender v2.79 (sub 0) OBJ File: ''
# www.blender.org
mtllib stairs.mtl
o Cube.002_Cube.003
v -11.000000 11.000000 1.000000
v -11.000000 11.000000 -1.000000
v -11.000000 13.000000 -0.999999
v -13.000000 13.000000 -1.000000
v -13.000000 11.000000 -1.000000
v -13.000000 13.000000 1.000000
v -11.000000 15.000000 -0.999999
v -11.000001 15.000000 1.000001
v -13.000000 15.000000 -1.000000
v -12.999999 11.000001 -5.000000
v -12.999999 13.000001 -5.000000
v -8.999999 11.000001 -5.000000
v -10.999998 15.000000 -5.000000
v -12.999999 15.000000 -5.000000
v -12.999997 11.000001 -10.000000
v -12.999998 13.000002 -10.000000
v -8.999997 13.000002 -9.999999
v -10.999997 15.000001 -10.000000
v -12.999998 15.000001 -10.000000
v -15.000000 13.000000 -1.000000
v -15.000000 15.000000 -1.000000
v -14.999999 15.000000 -5.000000
v -14.999999 13.000001 -5.000000
v -14.999998 15.000001 -10.000000
v -14.999998 13.000002 -10.000000
v -13.000000 17.000000 1.000000
v -13.000000 17.000000 -1.000000
v -12.999999 17.000000 -5.000000
v -12.999998 17.000000 -10.000000
v -15.000000 17.000000 -1.000000
v -17.000000 15.000000 -1.000001
v -17.000000 15.000000 -5.000001
v -16.999998 15.000001 -10.000001
v -17.000000 17.000000 -5.000001
v -14.999999 17.000000 -5.000000
v -14.999998 17.000000 -10.000000
v -17.000000 17.000000 0.999999
v -17.000000 17.000000 -1.000001
v -16.999998 17.000000 -10.000001
v -15.000000 19.000000 0.999999
v -15.000000 19.000000 -1.000000
v -14.999999 19.000000 -5.000000
v -14.999998 19.000000 -10.000000
v -17.000000 19.000000 -1.000001
v -17.000000 19.000000 -5.000001
v -16.999998 19.000000 -10.000001
v -13.000000 11.000000 1.000000
v -11.000001 13.000000 1.000001
v -9.000000 11.000000 1.000001
v -9.000001 13.000000 1.000001
v -13.000000 15.000000 1.000000
v -15.000000 13.000000 0.999999
v -15.000000 15.000000 0.999999
v -17.000000 15.000000 0.999999
v -15.000000 17.000000 0.999999
v -17.000000 19.000000 0.999999
v -13.000003 10.999999 10.000000
v -13.000003 12.999999 10.000000
v -9.000004 12.999999 10.000001
v -11.000004 14.999999 10.000001
v -13.000003 14.999999 10.000000
v -15.000003 12.999999 9.999999
v -15.000003 14.999999 9.999999
v -13.000003 17.000000 10.000000
v -17.000004 14.999999 9.999999
v -17.000004 17.000000 9.999999
v -15.000003 17.000000 9.999999
v -17.000004 19.000000 9.999999
v -15.000003 19.000000 9.999999
v 1.000000 -1.000000 -1.000000
v -1.000000 -1.000000 -1.000000
v 1.000000 -1.000000 1.000000
v 1.000000 1.000000 -0.999999
v 0.999999 1.000000 1.000001
v -1.000000 1.000000 1.000000
v -1.000000 1.000000 -1.000000
v -1.000000 -1.000000 1.000000
v 3.000000 -1.000000 -0.999999
v 3.000000 -1.000000 1.000001
v 3.000000 1.000000 -0.999999
v 2.999999 1.000000 1.000001
v 1.000000 3.000000 -0.999999
v 0.999999 3.000000 1.000001
v -1.000000 3.000000 -1.000000
v 1.000001 -0.999999 -5.000000
v -0.999999 -0.999999 -5.000000
v 1.000002 1.000001 -5.000000
v -0.999999 1.000001 -5.000000
v 3.000001 -0.999999 -5.000000
v 3.000002 1.000001 -4.999999
v 1.000002 3.000000 -5.000000
v -0.999999 3.000000 -5.000000
v 1.000002 -0.999999 -10.000000
v -0.999997 -0.999999 -10.000000
v 1.000003 1.000002 -10.000000
v -0.999998 1.000002 -10.000000
v 3.000002 -0.999998 -10.000000
v 3.000003 1.000002 -9.999999
v 1.000003 3.000001 -10.000000
v -0.999998 3.000001 -10.000000
v -3.000000 1.000000 0.999999
v -3.000000 1.000000 -1.000000
v -3.000000 3.000000 0.999999
v -3.000000 3.000000 -1.000000
v -2.999999 3.000000 -5.000000
v -2.999999 1.000001 -5.000000
v -2.999998 3.000001 -10.000000
v -2.999998 1.000002 -10.000000
v -1.000000 5.000000 1.000000
v -1.000000 5.000000 -1.000000
v -0.999999 5.000000 -5.000000
v -0.999998 5.000001 -10.000000
v -5.000000 3.000000 -1.000001
v -4.999999 3.000000 -5.000001
v -4.999998 3.000001 -10.000001
v -4.999999 5.000000 -5.000001
v -2.999999 5.000000 -5.000000
v -2.999998 5.000001 -10.000000
v -5.000000 5.000000 -1.000001
v -2.999999 7.000000 -5.000000
v -4.999999 7.000000 -5.000001
v -1.000000 3.000000 1.000000
v -5.000000 3.000000 0.999999
v -5.000000 5.000000 0.999999
v 0.999997 -1.000001 10.000000
v -1.000003 -1.000001 10.000000
v 0.999996 0.999999 10.000001
v -1.000003 0.999999 10.000000
v 2.999997 -1.000001 10.000001
v 2.999996 0.999999 10.000001
v 0.999996 2.999999 10.000001
v -1.000003 2.999999 10.000000
v -3.000003 0.999999 9.999999
v -3.000003 2.999999 9.999999
v -1.000003 4.999999 10.000000
v -5.000003 2.999999 9.999999
v -5.000000 7.000000 1.000001
v -7.000000 5.000000 1.000000
v -7.000000 5.000000 -1.000000
v -5.000000 7.000000 -0.999999
v -7.000000 7.000000 -1.000000
v -3.000000 5.000000 -0.999999
v -3.000000 7.000000 -0.999999
v -5.000000 9.000000 -0.999999
v -5.000000 9.000000 1.000001
v -7.000000 9.000000 -1.000000
v -7.000000 9.000000 1.000000
v -6.999999 5.000000 -5.000000
v -6.999999 7.000000 -5.000000
v -4.999999 9.000000 -5.000000
v -6.999999 9.000000 -5.000000
v -4.999998 5.000001 -10.000000
v -6.999998 5.000001 -10.000000
v -4.999997 7.000001 -10.000000
v -6.999998 7.000001 -10.000000
v -2.999997 7.000001 -9.999999
v -4.999997 9.000001 -10.000000
v -6.999998 9.000001 -10.000000
v -9.000000 7.000000 -1.000000
v -9.000000 9.000000 0.999999
v -9.000000 9.000000 -1.000000
v -8.999999 9.000000 -5.000000
v -8.999999 7.000000 -5.000000
v -8.999998 9.000001 -10.000000
v -8.999998 7.000001 -10.000000
v -7.000000 11.000000 -1.000000
v -6.999999 11.000000 -5.000000
v -6.999998 11.000001 -10.000000
v -11.000000 9.000000 0.999999
v -11.000000 9.000000 -1.000001
v -10.999999 9.000000 -5.000001
v -10.999998 9.000001 -10.000001
v -10.999999 11.000000 -5.000001
v -9.000000 11.000000 -1.000000
v -8.999998 11.000001 -10.000000
v -10.999998 11.000001 -10.000001
v -9.000000 13.000000 -1.000000
v -8.999999 13.000000 -5.000000
v -10.999999 13.000000 -5.000001
v -10.999998 13.000001 -10.000001
v -7.000000 7.000000 1.000000
v -3.000000 5.000000 1.000001
v -3.000001 7.000000 1.000001
v -9.000000 7.000000 0.999999
v -7.000000 11.000000 1.000000
v -5.000003 4.999999 10.000000
v -7.000003 4.999999 10.000000
v -5.000003 6.999999 10.000001
v -7.000003 6.999999 10.000000
v -3.000003 4.999999 10.000001
v -3.000004 6.999999 10.000001
v -5.000003 8.999999 10.000001
v -7.000003 8.999999 10.000000
v -9.000003 6.999999 9.999999
v -9.000003 8.999999 9.999999
v -9.000003 10.999999 9.999999
v -7.000003 10.999999 10.000000
v -11.000004 8.999999 9.999999
v -11.000004 10.999999 9.999999
v -11.000004 12.999999 9.999999
vn 0.0000 1.0000 0.0000
vn 0.0000 -1.0000 0.0000
vn -1.0000 0.0000 -0.0000
vn 0.0000 0.0000 -1.0000
vn 1.0000 -0.0000 0.0000
vn -0.0000 -0.0000 1.0000
usemtl Material.002
s off
f 2//1 5//1 47//1 1//1
f 3//2 48//2 6//2 4//2
f 2//3 1//3 48//3 3//3
f 1//4 47//4 6//4 48//4
f 47//5 5//5 4//5 6//5
f 3//6 4//6 5//6 2//6
f 5//3 4//3 11//3 10//3
f 174//5 177//5 50//5 49//5
f 177//5 174//5 12//5 178//5
f 1//2 2//2 174//2 49//2
f 3//1 48//1 50//1 177//1
f 7//1 9//1 51//1 8//1
f 7//5 3//5 179//5 13//5
f 48//5 3//5 7//5 8//5
f 14//1 13//1 18//1 19//1
f 13//5 179//5 180//5 18//5
f 173//2 10//2 15//2 176//2
f 3//1 177//1 178//1 179//1
f 4//2 6//2 52//2 20//2
f 2//2 5//2 10//2 173//2
f 9//1 7//1 13//1 14//1
f 174//2 2//2 173//2 12//2
f 180//4 176//4 15//4 16//4
f 176//4 180//4 17//4 175//4
f 180//4 16//4 19//4 18//4
f 179//1 178//1 17//1 180//1
f 12//2 173//2 176//2 175//2
f 178//5 12//5 175//5 17//5
f 10//3 11//3 16//3 15//3
f 20//3 52//3 53//3 21//3
f 20//3 21//3 22//3 23//3
f 23//3 22//3 24//3 25//3
f 11//2 4//2 20//2 23//2
f 16//2 11//2 23//2 25//2
f 21//2 53//2 54//2 31//2
f 19//4 16//4 25//4 24//4
f 27//1 28//1 35//1 30//1
f 28//1 29//1 36//1 35//1
f 26//1 27//1 30//1 55//1
f 19//4 24//4 36//4 29//4
f 9//5 14//5 28//5 27//5
f 51//5 9//5 27//5 26//5
f 14//5 19//5 29//5 28//5
f 32//3 31//3 38//3 34//3
f 33//3 32//3 34//3 39//3
f 31//3 54//3 37//3 38//3
f 24//2 22//2 32//2 33//2
f 22//2 21//2 31//2 32//2
f 36//4 24//4 33//4 39//4
f 35//5 36//5 43//5 42//5
f 34//3 38//3 44//3 45//3
f 41//1 42//1 45//1 44//1
f 42//1 43//1 46//1 45//1
f 40//1 41//1 44//1 56//1
f 55//5 30//5 41//5 40//5
f 36//4 39//4 46//4 43//4
f 39//3 34//3 45//3 46//3
f 38//3 37//3 56//3 44//3
f 30//5 35//5 42//5 41//5
f 56//3 37//3 66//3 68//3
f 1//2 49//2 196//2 199//2
f 53//3 52//3 62//3 63//3
f 37//2 55//2 67//2 66//2
f 49//5 50//5 59//5 196//5
f 48//5 8//5 60//5 200//5
f 200//6 199//6 196//6 59//6
f 199//6 200//6 58//6 57//6
f 58//6 200//6 60//6 61//6
f 58//6 61//6 63//6 62//6
f 63//6 67//6 66//6 65//6
f 63//6 61//6 64//6 67//6
f 66//6 67//6 69//6 68//6
f 50//1 48//1 200//1 59//1
f 55//5 40//5 69//5 67//5
f 26//1 55//1 67//1 64//1
f 8//1 51//1 61//1 60//1
f 40//1 56//1 68//1 69//1
f 47//2 1//2 199//2 57//2
f 54//2 53//2 63//2 65//2
f 51//5 26//5 64//5 61//5
f 52//2 6//2 58//2 62//2
f 6//3 47//3 57//3 58//3
f 37//3 54//3 65//3 66//3
usemtl Material
f 70//1 71//1 77//1 72//1
f 70//3 72//3 74//3 73//3
f 72//4 77//4 75//4 74//4
f 77//5 71//5 76//5 75//5
f 73//6 76//6 71//6 70//6
f 73//2 74//2 75//2 76//2
f 71//3 76//3 88//3 86//3
f 78//5 80//5 81//5 79//5
f 80//5 78//5 89//5 90//5
f 72//2 70//2 78//2 79//2
f 73//1 74//1 81//1 80//1
f 82//1 84//1 122//1 83//1
f 82//5 73//5 87//5 91//5
f 74//5 73//5 82//5 83//5
f 92//1 91//1 99//1 100//1
f 91//5 87//5 95//5 99//5
f 85//2 86//2 94//2 93//2
f 73//1 80//1 90//1 87//1
f 76//2 75//2 101//2 102//2
f 70//2 71//2 86//2 85//2
f 84//1 82//1 91//1 92//1
f 78//2 70//2 85//2 89//2
f 95//4 93//4 94//4 96//4
f 93//4 95//4 98//4 97//4
f 95//4 96//4 100//4 99//4
f 87//1 90//1 98//1 95//1
f 89//2 85//2 93//2 97//2
f 90//5 89//5 97//5 98//5
f 86//3 88//3 96//3 94//3
f 102//3 101//3 103//3 104//3
f 102//3 104//3 105//3 106//3
f 106//3 105//3 107//3 108//3
f 88//2 76//2 102//2 106//2
f 96//2 88//2 106//2 108//2
f 104//2 103//2 123//2 113//2
f 100//4 96//4 108//4 107//4
f 110//1 111//1 117//1 142//1
f 111//1 112//1 118//1 117//1
f 109//1 110//1 142//1 182//1
f 100//4 107//4 118//4 112//4
f 84//5 92//5 111//5 110//5
f 122//5 84//5 110//5 109//5
f 92//5 100//5 112//5 111//5
f 114//3 113//3 119//3 116//3
f 115//3 114//3 116//3 152//3
f 113//3 123//3 124//3 119//3
f 107//2 105//2 114//2 115//2
f 105//2 104//2 113//2 114//2
f 118//4 107//4 115//4 152//4
f 117//5 118//5 156//5 120//5
f 116//3 119//3 140//3 121//3
f 143//1 120//1 121//1 140//1
f 120//1 156//1 154//1 121//1
f 183//1 143//1 140//1 137//1
f 182//5 142//5 143//5 183//5
f 118//4 152//4 154//4 156//4
f 152//3 116//3 121//3 154//3
f 119//3 124//3 137//3 140//3
f 142//5 117//5 120//5 143//5
f 137//3 124//3 186//3 188//3
f 72//2 79//2 129//2 125//2
f 103//3 101//3 133//3 134//3
f 124//2 182//2 190//2 186//2
f 79//5 81//5 130//5 129//5
f 74//5 83//5 131//5 127//5
f 127//6 125//6 129//6 130//6
f 125//6 127//6 128//6 126//6
f 128//6 127//6 131//6 132//6
f 128//6 132//6 134//6 133//6
f 134//6 190//6 186//6 136//6
f 134//6 132//6 135//6 190//6
f 81//1 74//1 127//1 130//1
f 109//1 182//1 190//1 135//1
f 83//1 122//1 132//1 131//1
f 183//1 137//1 188//1 191//1
f 77//2 72//2 125//2 126//2
f 123//2 103//2 134//2 136//2
f 122//5 109//5 135//5 132//5
f 101//2 75//2 128//2 133//2
f 75//3 77//3 126//3 128//3
f 124//3 123//3 136//3 186//3
usemtl Material.001
f 119//1 139//1 138//1 124//1
f 140//2 137//2 181//2 141//2
f 124//4 138//4 181//4 137//4
f 138//5 139//5 141//5 181//5
f 140//6 141//6 139//6 119//6
f 139//3 141//3 149//3 148//3
f 124//2 119//2 142//2 182//2
f 144//1 146//1 147//1 145//1
f 144//5 140//5 121//5 150//5
f 137//5 140//5 144//5 145//5
f 151//1 150//1 157//1 158//1
f 150//5 121//5 154//5 157//5
f 116//2 148//2 153//2 152//2
f 141//2 181//2 184//2 159//2
f 119//2 139//2 148//2 116//2
f 146//1 144//1 150//1 151//1
f 142//2 119//2 116//2 117//2
f 154//4 152//4 153//4 155//4
f 154//4 155//4 158//4 157//4
f 117//2 116//2 152//2 118//2
f 148//3 149//3 155//3 153//3
f 159//3 184//3 160//3 161//3
f 159//3 161//3 162//3 163//3
f 163//3 162//3 164//3 165//3
f 149//2 141//2 159//2 163//2
f 155//2 149//2 163//2 165//2
f 161//2 160//2 169//2 170//2
f 158//4 155//4 165//4 164//4
f 166//1 167//1 12//1 174//1
f 167//1 168//1 175//1 12//1
f 185//1 166//1 174//1 49//1
f 158//4 164//4 175//4 168//4
f 146//5 151//5 167//5 166//5
f 147//5 146//5 166//5 185//5
f 151//5 158//5 168//5 167//5
f 171//3 170//3 2//3 173//3
f 172//3 171//3 173//3 176//3
f 170//3 169//3 1//3 2//3
f 164//2 162//2 171//2 172//2
f 162//2 161//2 170//2 171//2
f 175//4 164//4 172//4 176//4
f 173//3 2//3 3//3 179//3
f 176//3 173//3 179//3 180//3
f 48//3 1//3 199//3 200//3
f 160//3 184//3 194//3 195//3
f 182//5 183//5 191//5 190//5
f 137//5 145//5 192//5 188//5
f 188//6 186//6 190//6 191//6
f 186//6 188//6 189//6 187//6
f 189//6 188//6 192//6 193//6
f 189//6 193//6 195//6 194//6
f 195//6 196//6 199//6 198//6
f 195//6 193//6 197//6 196//6
f 185//1 49//1 196//1 197//1
f 145//1 147//1 193//1 192//1
f 138//2 124//2 186//2 187//2
f 169//2 160//2 195//2 198//2
f 147//5 185//5 197//5 193//5
f 184//2 181//2 189//2 194//2
f 181//3 138//3 187//3 189//3
f 1//3 169//3 198//3 199//3
