# Object Export From Tinkercad Server 2015

mtllib obj.mtl

o obj_0
v 14 		11 		146.5
v 8 		11 		146.5
v 8 		-22 		146.5
v 14 		-22 		146.5
v 8 		11 		140.5
v 14 		11 		140.5
v 14 		-22 		140.5
v 8 		-22 		140.5
v 14 		11 		126.5
v 8 		11 		126.5
v 8 		-22 		126.5
v 14 		-22 		126.5
v 8 		11 		120.5
v 14 		11 		120.5
v 14 		-22 		120.5
v 8 		-22 		120.5
v 14 		11 		106
v 8 		11 		106
v 8 		-22 		106
v 14 		-22 		106
v 8 		11 		100
v 14 		11 		100
v 14 		-22 		100
v 8 		-22 		100
v 14 		11 		86.5
v 8 		11 		86.5
v 8 		-22 		86.5
v 14 		-22 		86.5
v 8 		11 		80.5
v 14 		11 		80.5
v 14 		-22 		80.5
v 8 		-22 		80.5
v 8 		-22 		25.5
v 8 		-22 		40
v 14 		-22 		40
v 14 		-22 		25.5
v 8 		-22 		0
v 8 		-22 		19.5
v 14 		-22 		19.5
v 14 		-22 		0
v 8 		-28 		180
v 8 		-28 		0
v 14 		-28 		0
v 14 		-28 		180
v 8 		-22 		180
v 8 		-22 		167
v 8 		-22 		161
v 8 		-22 		66
v 8 		-22 		60
v 8 		-22 		46
v 14 		-22 		180
v 14 		-22 		46
v 14 		-22 		60
v 14 		-22 		66
v 14 		-22 		161
v 14 		-22 		167
v 8 		11 		66
v 8 		11 		60
v 8 		11 		46
v 8 		11 		40
v 8 		11 		25.5
v 8 		11 		19.5
v 14 		11 		167
v 8 		11 		167
v 8 		11 		161
v 14 		11 		161
v 14 		11 		66
v 14 		11 		60
v 14 		11 		46
v 14 		11 		40
v 14 		11 		25.5
v 14 		11 		19.5
v 14 		11 		0
v 8 		11 		0
v 8 		17 		0
v 8 		11 		180
v 8 		17 		180
v 14 		11 		180
v 14 		17 		180
v 14 		17 		0
# 80 vertices

g group_0_15277357

usemtl color_15277357
s 0

f 1 	2 	3
f 1 	3 	4
f 5 	6 	7
f 5 	7 	8
f 9 	10 	11
f 9 	11 	12
f 13 	14 	15
f 13 	15 	16
f 17 	18 	19
f 17 	19 	20
f 21 	22 	23
f 21 	23 	24
f 25 	26 	27
f 25 	27 	28
f 29 	30 	31
f 29 	31 	32
f 33 	34 	35
f 33 	35 	36
f 37 	38 	39
f 37 	39 	40
f 41 	42 	43
f 41 	43 	44
f 46 	47 	41
f 45 	46 	41
f 47 	3 	41
f 3 	8 	41
f 8 	11 	41
f 11 	16 	41
f 16 	19 	41
f 19 	24 	41
f 24 	27 	41
f 42 	41 	27
f 27 	32 	42
f 32 	48 	42
f 48 	49 	42
f 49 	50 	42
f 50 	34 	42
f 34 	33 	42
f 33 	38 	42
f 37 	42 	38
f 39 	36 	43
f 40 	39 	43
f 36 	35 	43
f 35 	52 	43
f 52 	53 	43
f 53 	54 	43
f 54 	31 	43
f 31 	28 	43
f 44 	43 	28
f 28 	23 	44
f 23 	20 	44
f 20 	15 	44
f 15 	12 	44
f 12 	7 	44
f 7 	4 	44
f 4 	55 	44
f 55 	56 	44
f 51 	44 	56
f 9 	12 	15
f 9 	15 	14
f 17 	20 	23
f 17 	23 	22
f 25 	28 	31
f 25 	31 	30
f 11 	10 	13
f 11 	13 	16
f 19 	18 	21
f 19 	21 	24
f 27 	26 	29
f 27 	29 	32
f 48 	57 	58
f 48 	58 	49
f 50 	59 	60
f 50 	60 	34
f 33 	61 	62
f 33 	62 	38
f 63 	64 	46
f 63 	46 	56
f 65 	66 	55
f 65 	55 	47
f 67 	54 	53
f 67 	53 	68
f 69 	52 	35
f 69 	35 	70
f 71 	36 	39
f 71 	39 	72
f 46 	64 	65
f 46 	65 	47
f 3 	2 	5
f 3 	5 	8
f 9 	6 	5
f 9 	5 	10
f 17 	14 	13
f 17 	13 	18
f 25 	22 	21
f 25 	21 	26
f 67 	30 	29
f 67 	29 	57
f 69 	68 	58
f 69 	58 	59
f 71 	70 	60
f 71 	60 	61
f 73 	72 	62
f 73 	62 	74
f 75 	74 	62
f 75 	62 	61
f 75 	61 	60
f 75 	60 	59
f 75 	59 	58
f 75 	58 	57
f 75 	57 	29
f 75 	29 	26
f 21 	77 	26
f 18 	77 	21
f 13 	77 	18
f 10 	77 	13
f 5 	77 	10
f 2 	77 	5
f 65 	77 	2
f 64 	77 	65
f 76 	77 	64
f 75 	26 	77
f 77 	76 	78
f 77 	78 	79
f 45 	41 	44
f 45 	44 	51
f 80 	73 	74
f 80 	74 	75
f 40 	43 	42
f 40 	42 	37
f 79 	80 	75
f 79 	75 	77
f 63 	56 	55
f 63 	55 	66
f 1 	4 	7
f 1 	7 	6
f 79 	78 	63
f 79 	63 	66
f 79 	66 	1
f 79 	1 	6
f 79 	6 	9
f 79 	9 	14
f 79 	14 	17
f 79 	17 	22
f 79 	22 	25
f 30 	80 	25
f 67 	80 	30
f 68 	80 	67
f 69 	80 	68
f 70 	80 	69
f 71 	80 	70
f 72 	80 	71
f 73 	80 	72
f 79 	25 	80
f 51 	56 	46
f 51 	46 	45
f 3 	47 	55
f 3 	55 	4
f 11 	8 	7
f 11 	7 	12
f 19 	16 	15
f 19 	15 	20
f 27 	24 	23
f 27 	23 	28
f 48 	32 	31
f 48 	31 	54
f 50 	49 	53
f 50 	53 	52
f 67 	57 	48
f 67 	48 	54
f 58 	68 	53
f 58 	53 	49
f 69 	59 	50
f 69 	50 	52
f 60 	70 	35
f 60 	35 	34
f 71 	61 	33
f 71 	33 	36
f 62 	72 	39
f 62 	39 	38
f 76 	64 	63
f 76 	63 	78
f 1 	66 	65
f 1 	65 	2
# 184 faces

 #end of obj_0

